<mxfile host="Electron" agent="Mozilla/5.0 (X11; Linux x86_64) AppleWebKit/537.36 (KHTML, like Gecko) draw.io/28.1.2 Chrome/138.0.7204.251 Electron/37.5.1 Safari/537.36" version="28.1.2">
  <diagram name="Page-1" id="d9q4PlNrVQmsQcu3UT8b">
    <mxGraphModel dx="1118" dy="677" grid="1" gridSize="10" guides="1" tooltips="1" connect="1" arrows="1" fold="1" page="1" pageScale="1" pageWidth="1169" pageHeight="1654" math="0" shadow="0">
      <root>
        <mxCell id="0" />
        <mxCell id="1" parent="0" />
        <mxCell id="VEXCcbh29a9mxK6B75Do-25" style="edgeStyle=orthogonalEdgeStyle;rounded=0;orthogonalLoop=1;jettySize=auto;html=1;entryX=0;entryY=0.5;entryDx=0;entryDy=0;" edge="1" parent="1" source="VEXCcbh29a9mxK6B75Do-1" target="VEXCcbh29a9mxK6B75Do-9">
          <mxGeometry relative="1" as="geometry" />
        </mxCell>
        <mxCell id="VEXCcbh29a9mxK6B75Do-1" value="&amp;nbsp; Gain and&amp;nbsp;&lt;div&gt;&amp;nbsp; &amp;nbsp;Offset&lt;/div&gt;" style="triangle;whiteSpace=wrap;html=1;align=left;fillColor=#fff2cc;strokeColor=#d6b656;" vertex="1" parent="1">
          <mxGeometry x="360" y="180" width="80" height="100" as="geometry" />
        </mxCell>
        <mxCell id="VEXCcbh29a9mxK6B75Do-8" value="" style="edgeStyle=orthogonalEdgeStyle;rounded=0;orthogonalLoop=1;jettySize=auto;html=1;" edge="1" parent="1" source="VEXCcbh29a9mxK6B75Do-2" target="VEXCcbh29a9mxK6B75Do-4">
          <mxGeometry relative="1" as="geometry" />
        </mxCell>
        <mxCell id="VEXCcbh29a9mxK6B75Do-2" value="&amp;nbsp; Gain" style="triangle;whiteSpace=wrap;html=1;align=left;fillColor=#fff2cc;strokeColor=#d6b656;" vertex="1" parent="1">
          <mxGeometry x="360" y="290" width="80" height="100" as="geometry" />
        </mxCell>
        <mxCell id="VEXCcbh29a9mxK6B75Do-7" value="" style="edgeStyle=orthogonalEdgeStyle;rounded=0;orthogonalLoop=1;jettySize=auto;html=1;" edge="1" parent="1" source="VEXCcbh29a9mxK6B75Do-3" target="VEXCcbh29a9mxK6B75Do-5">
          <mxGeometry relative="1" as="geometry" />
        </mxCell>
        <mxCell id="VEXCcbh29a9mxK6B75Do-3" value="&amp;nbsp; Gain" style="triangle;whiteSpace=wrap;html=1;align=left;fillColor=#fff2cc;strokeColor=#d6b656;" vertex="1" parent="1">
          <mxGeometry x="360" y="480" width="80" height="100" as="geometry" />
        </mxCell>
        <mxCell id="VEXCcbh29a9mxK6B75Do-11" value="" style="edgeStyle=orthogonalEdgeStyle;rounded=0;orthogonalLoop=1;jettySize=auto;html=1;" edge="1" parent="1" source="VEXCcbh29a9mxK6B75Do-4" target="VEXCcbh29a9mxK6B75Do-9">
          <mxGeometry relative="1" as="geometry" />
        </mxCell>
        <mxCell id="VEXCcbh29a9mxK6B75Do-4" value="Low-pass filter" style="rounded=0;whiteSpace=wrap;html=1;strokeColor=#9673a6;fillColor=#e1d5e7;" vertex="1" parent="1">
          <mxGeometry x="480" y="310" width="120" height="60" as="geometry" />
        </mxCell>
        <mxCell id="VEXCcbh29a9mxK6B75Do-10" style="edgeStyle=orthogonalEdgeStyle;rounded=0;orthogonalLoop=1;jettySize=auto;html=1;entryX=1;entryY=0.5;entryDx=0;entryDy=0;" edge="1" parent="1" source="VEXCcbh29a9mxK6B75Do-5" target="VEXCcbh29a9mxK6B75Do-9">
          <mxGeometry relative="1" as="geometry" />
        </mxCell>
        <mxCell id="VEXCcbh29a9mxK6B75Do-5" value="Low-pass filter" style="rounded=0;whiteSpace=wrap;html=1;fillColor=#e1d5e7;strokeColor=#9673a6;" vertex="1" parent="1">
          <mxGeometry x="480" y="500" width="120" height="60" as="geometry" />
        </mxCell>
        <mxCell id="VEXCcbh29a9mxK6B75Do-16" value="" style="edgeStyle=orthogonalEdgeStyle;rounded=0;orthogonalLoop=1;jettySize=auto;html=1;" edge="1" parent="1" source="VEXCcbh29a9mxK6B75Do-9" target="VEXCcbh29a9mxK6B75Do-13">
          <mxGeometry relative="1" as="geometry" />
        </mxCell>
        <mxCell id="VEXCcbh29a9mxK6B75Do-9" value="&lt;div&gt;Signal&lt;/div&gt;Switch" style="shape=process;whiteSpace=wrap;html=1;backgroundOutline=1;direction=south;fillColor=#b0e3e6;strokeColor=#0e8088;" vertex="1" parent="1">
          <mxGeometry x="640" y="280" width="40" height="120" as="geometry" />
        </mxCell>
        <mxCell id="VEXCcbh29a9mxK6B75Do-18" value="" style="edgeStyle=orthogonalEdgeStyle;rounded=0;orthogonalLoop=1;jettySize=auto;html=1;" edge="1" parent="1">
          <mxGeometry relative="1" as="geometry">
            <mxPoint x="790" y="340" as="sourcePoint" />
            <mxPoint x="820" y="420" as="targetPoint" />
            <Array as="points">
              <mxPoint x="810" y="340" />
              <mxPoint x="810" y="420" />
            </Array>
          </mxGeometry>
        </mxCell>
        <mxCell id="VEXCcbh29a9mxK6B75Do-13" value="&amp;nbsp; Gain" style="triangle;whiteSpace=wrap;html=1;align=left;fillColor=#fff2cc;strokeColor=#d6b656;" vertex="1" parent="1">
          <mxGeometry x="720" y="290" width="80" height="100" as="geometry" />
        </mxCell>
        <mxCell id="VEXCcbh29a9mxK6B75Do-33" value="" style="edgeStyle=orthogonalEdgeStyle;rounded=0;orthogonalLoop=1;jettySize=auto;html=1;" edge="1" parent="1" source="VEXCcbh29a9mxK6B75Do-17" target="VEXCcbh29a9mxK6B75Do-32">
          <mxGeometry relative="1" as="geometry" />
        </mxCell>
        <mxCell id="VEXCcbh29a9mxK6B75Do-17" value="&lt;div style=&quot;line-height: 10%;&quot;&gt;Offset&lt;/div&gt;" style="triangle;whiteSpace=wrap;html=1;align=center;direction=south;fillColor=#fff2cc;strokeColor=#d6b656;" vertex="1" parent="1">
          <mxGeometry x="760" y="390" width="100" height="80" as="geometry" />
        </mxCell>
        <mxCell id="VEXCcbh29a9mxK6B75Do-27" style="edgeStyle=orthogonalEdgeStyle;rounded=0;orthogonalLoop=1;jettySize=auto;html=1;exitX=1;exitY=0.75;exitDx=0;exitDy=0;" edge="1" parent="1" target="VEXCcbh29a9mxK6B75Do-2">
          <mxGeometry relative="1" as="geometry">
            <mxPoint x="280" y="341.25" as="sourcePoint" />
            <mxPoint x="360" y="338.75" as="targetPoint" />
            <Array as="points">
              <mxPoint x="321" y="341" />
              <mxPoint x="321" y="340" />
            </Array>
          </mxGeometry>
        </mxCell>
        <mxCell id="VEXCcbh29a9mxK6B75Do-29" value="&amp;nbsp;Triangle&amp;nbsp;" style="edgeLabel;html=1;align=center;verticalAlign=middle;resizable=0;points=[];" vertex="1" connectable="0" parent="VEXCcbh29a9mxK6B75Do-27">
          <mxGeometry x="-0.325" y="-3" relative="1" as="geometry">
            <mxPoint x="13" y="-3" as="offset" />
          </mxGeometry>
        </mxCell>
        <mxCell id="VEXCcbh29a9mxK6B75Do-22" value="Square and Triangle wave Generator" style="swimlane;whiteSpace=wrap;html=1;startSize=30;fillColor=#d5e8d4;strokeColor=#82b366;" vertex="1" parent="1">
          <mxGeometry x="110" y="170" width="170" height="230" as="geometry" />
        </mxCell>
        <mxCell id="VEXCcbh29a9mxK6B75Do-24" value="" style="edgeStyle=orthogonalEdgeStyle;rounded=0;orthogonalLoop=1;jettySize=auto;html=1;" edge="1" parent="1" source="VEXCcbh29a9mxK6B75Do-23" target="VEXCcbh29a9mxK6B75Do-3">
          <mxGeometry relative="1" as="geometry" />
        </mxCell>
        <mxCell id="VEXCcbh29a9mxK6B75Do-30" value="&amp;nbsp;Sine&amp;nbsp;" style="edgeLabel;html=1;align=center;verticalAlign=middle;resizable=0;points=[];" vertex="1" connectable="0" parent="VEXCcbh29a9mxK6B75Do-24">
          <mxGeometry x="-0.025" y="-6" relative="1" as="geometry">
            <mxPoint y="-6" as="offset" />
          </mxGeometry>
        </mxCell>
        <mxCell id="VEXCcbh29a9mxK6B75Do-23" value="Sine wave Generator" style="swimlane;whiteSpace=wrap;html=1;fillColor=#d5e8d4;strokeColor=#82b366;" vertex="1" parent="1">
          <mxGeometry x="110" y="430" width="170" height="200" as="geometry" />
        </mxCell>
        <mxCell id="VEXCcbh29a9mxK6B75Do-26" style="edgeStyle=orthogonalEdgeStyle;rounded=0;orthogonalLoop=1;jettySize=auto;html=1;exitX=1;exitY=0.25;exitDx=0;exitDy=0;entryX=0;entryY=0.5;entryDx=0;entryDy=0;" edge="1" parent="1" source="VEXCcbh29a9mxK6B75Do-22" target="VEXCcbh29a9mxK6B75Do-1">
          <mxGeometry relative="1" as="geometry">
            <Array as="points">
              <mxPoint x="280" y="230" />
            </Array>
          </mxGeometry>
        </mxCell>
        <mxCell id="VEXCcbh29a9mxK6B75Do-28" value="&amp;nbsp;Square&amp;nbsp;" style="edgeLabel;html=1;align=center;verticalAlign=middle;resizable=0;points=[];" vertex="1" connectable="0" parent="VEXCcbh29a9mxK6B75Do-26">
          <mxGeometry x="-0.2195" y="-8" relative="1" as="geometry">
            <mxPoint x="8" y="-8" as="offset" />
          </mxGeometry>
        </mxCell>
        <mxCell id="VEXCcbh29a9mxK6B75Do-36" style="edgeStyle=orthogonalEdgeStyle;rounded=0;orthogonalLoop=1;jettySize=auto;html=1;entryX=0.133;entryY=0.742;entryDx=0;entryDy=0;entryPerimeter=0;" edge="1" parent="1" source="VEXCcbh29a9mxK6B75Do-31" target="VEXCcbh29a9mxK6B75Do-34">
          <mxGeometry relative="1" as="geometry" />
        </mxCell>
        <mxCell id="VEXCcbh29a9mxK6B75Do-38" value="VGND" style="edgeLabel;html=1;align=center;verticalAlign=middle;resizable=0;points=[];" vertex="1" connectable="0" parent="VEXCcbh29a9mxK6B75Do-36">
          <mxGeometry x="0.0918" relative="1" as="geometry">
            <mxPoint as="offset" />
          </mxGeometry>
        </mxCell>
        <mxCell id="VEXCcbh29a9mxK6B75Do-31" value="&amp;nbsp; Power&lt;div&gt;&amp;nbsp; Amplifier&lt;/div&gt;" style="shape=offPageConnector;whiteSpace=wrap;html=1;direction=north;size=0.375;align=left;fillColor=#f8cecc;strokeColor=#b85450;" vertex="1" parent="1">
          <mxGeometry x="720" y="580" width="80" height="80" as="geometry" />
        </mxCell>
        <mxCell id="VEXCcbh29a9mxK6B75Do-35" style="edgeStyle=orthogonalEdgeStyle;rounded=0;orthogonalLoop=1;jettySize=auto;html=1;" edge="1" parent="1" source="VEXCcbh29a9mxK6B75Do-32" target="VEXCcbh29a9mxK6B75Do-34">
          <mxGeometry relative="1" as="geometry">
            <Array as="points">
              <mxPoint x="810" y="580" />
            </Array>
          </mxGeometry>
        </mxCell>
        <mxCell id="VEXCcbh29a9mxK6B75Do-37" value="+" style="edgeLabel;html=1;align=center;verticalAlign=middle;resizable=0;points=[];" vertex="1" connectable="0" parent="VEXCcbh29a9mxK6B75Do-35">
          <mxGeometry x="-0.0111" y="-1" relative="1" as="geometry">
            <mxPoint as="offset" />
          </mxGeometry>
        </mxCell>
        <mxCell id="VEXCcbh29a9mxK6B75Do-39" value="Signal" style="edgeLabel;html=1;align=center;verticalAlign=middle;resizable=0;points=[];" vertex="1" connectable="0" parent="VEXCcbh29a9mxK6B75Do-35">
          <mxGeometry x="0.0667" y="-1" relative="1" as="geometry">
            <mxPoint as="offset" />
          </mxGeometry>
        </mxCell>
        <mxCell id="VEXCcbh29a9mxK6B75Do-32" value="Power Amplifier" style="shape=offPageConnector;whiteSpace=wrap;html=1;size=0.375;fillColor=#f8cecc;strokeColor=#b85450;" vertex="1" parent="1">
          <mxGeometry x="770" y="490" width="80" height="80" as="geometry" />
        </mxCell>
        <mxCell id="VEXCcbh29a9mxK6B75Do-34" value="&amp;nbsp; Output" style="shape=step;perimeter=stepPerimeter;whiteSpace=wrap;html=1;fixedSize=1;fillColor=#dae8fc;strokeColor=#6c8ebf;" vertex="1" parent="1">
          <mxGeometry x="860" y="560" width="80" height="80" as="geometry" />
        </mxCell>
        <mxCell id="VEXCcbh29a9mxK6B75Do-41" value="" style="edgeStyle=orthogonalEdgeStyle;rounded=0;orthogonalLoop=1;jettySize=auto;html=1;" edge="1" parent="1" source="VEXCcbh29a9mxK6B75Do-40" target="VEXCcbh29a9mxK6B75Do-31">
          <mxGeometry relative="1" as="geometry" />
        </mxCell>
        <mxCell id="VEXCcbh29a9mxK6B75Do-42" style="edgeStyle=orthogonalEdgeStyle;rounded=0;orthogonalLoop=1;jettySize=auto;html=1;entryX=1;entryY=0.75;entryDx=0;entryDy=0;" edge="1" parent="1" source="VEXCcbh29a9mxK6B75Do-40" target="VEXCcbh29a9mxK6B75Do-5">
          <mxGeometry relative="1" as="geometry">
            <Array as="points">
              <mxPoint x="620" y="620" />
              <mxPoint x="620" y="545" />
            </Array>
          </mxGeometry>
        </mxCell>
        <mxCell id="VEXCcbh29a9mxK6B75Do-43" style="edgeStyle=orthogonalEdgeStyle;rounded=0;orthogonalLoop=1;jettySize=auto;html=1;entryX=1;entryY=0.75;entryDx=0;entryDy=0;" edge="1" parent="1" source="VEXCcbh29a9mxK6B75Do-40" target="VEXCcbh29a9mxK6B75Do-4">
          <mxGeometry relative="1" as="geometry">
            <Array as="points">
              <mxPoint x="620" y="620" />
              <mxPoint x="620" y="355" />
            </Array>
          </mxGeometry>
        </mxCell>
        <mxCell id="VEXCcbh29a9mxK6B75Do-40" value="15V&lt;div&gt;Virtual&lt;div&gt;Ground Reference&lt;/div&gt;&lt;/div&gt;" style="whiteSpace=wrap;html=1;aspect=fixed;fillColor=#d5e8d4;strokeColor=#82b366;" vertex="1" parent="1">
          <mxGeometry x="504" y="580" width="80" height="80" as="geometry" />
        </mxCell>
        <mxCell id="VEXCcbh29a9mxK6B75Do-44" style="edgeStyle=orthogonalEdgeStyle;rounded=0;orthogonalLoop=1;jettySize=auto;html=1;entryX=0.713;entryY=0.643;entryDx=0;entryDy=0;entryPerimeter=0;" edge="1" parent="1" source="VEXCcbh29a9mxK6B75Do-40" target="VEXCcbh29a9mxK6B75Do-1">
          <mxGeometry relative="1" as="geometry">
            <Array as="points">
              <mxPoint x="620" y="620" />
              <mxPoint x="620" y="270" />
              <mxPoint x="417" y="270" />
            </Array>
          </mxGeometry>
        </mxCell>
        <mxCell id="VEXCcbh29a9mxK6B75Do-45" style="edgeStyle=orthogonalEdgeStyle;rounded=0;orthogonalLoop=1;jettySize=auto;html=1;exitX=0.25;exitY=0;exitDx=0;exitDy=0;entryX=1.009;entryY=0.016;entryDx=0;entryDy=0;entryPerimeter=0;" edge="1" parent="1" source="VEXCcbh29a9mxK6B75Do-9" target="VEXCcbh29a9mxK6B75Do-22">
          <mxGeometry relative="1" as="geometry" />
        </mxCell>
        <mxCell id="VEXCcbh29a9mxK6B75Do-48" value="&amp;nbsp;Power&amp;nbsp;" style="edgeLabel;html=1;align=center;verticalAlign=middle;resizable=0;points=[];" vertex="1" connectable="0" parent="VEXCcbh29a9mxK6B75Do-45">
          <mxGeometry x="0.1051" y="5" relative="1" as="geometry">
            <mxPoint x="-42" y="-6" as="offset" />
          </mxGeometry>
        </mxCell>
        <mxCell id="VEXCcbh29a9mxK6B75Do-46" style="edgeStyle=orthogonalEdgeStyle;rounded=0;orthogonalLoop=1;jettySize=auto;html=1;exitX=0.75;exitY=0;exitDx=0;exitDy=0;entryX=1.002;entryY=0.049;entryDx=0;entryDy=0;entryPerimeter=0;" edge="1" parent="1" source="VEXCcbh29a9mxK6B75Do-9" target="VEXCcbh29a9mxK6B75Do-23">
          <mxGeometry relative="1" as="geometry" />
        </mxCell>
        <mxCell id="VEXCcbh29a9mxK6B75Do-47" value="&amp;nbsp;Power&amp;nbsp;" style="edgeLabel;html=1;align=center;verticalAlign=middle;resizable=0;points=[];" vertex="1" connectable="0" parent="VEXCcbh29a9mxK6B75Do-46">
          <mxGeometry x="0.4051" y="1" relative="1" as="geometry">
            <mxPoint x="69" y="-2" as="offset" />
          </mxGeometry>
        </mxCell>
      </root>
    </mxGraphModel>
  </diagram>
</mxfile>
